/* XPM */
static char *_3ae63e4a4864536d8122928a98a615cLgElnWHBiOwIzS3T[] = {
/* columns rows colors chars-per-pixel */
"60 60 185 2 ",
"   c #000000",
".  c #030A03",
"X  c #0C010E",
"o  c #0C0C0D",
"O  c #071206",
"+  c #081207",
"@  c #041B04",
"#  c #091308",
"$  c #0B1D0B",
"%  c #0D0210",
"&  c #110F12",
"*  c #121213",
"=  c #032104",
"-  c #062D08",
";  c #0B2809",
":  c #09300B",
">  c #183C13",
",  c #004500",
"<  c #014B05",
"1  c #1A4F0F",
"2  c #035204",
"3  c #005D00",
"4  c #075208",
"5  c #0B5F0C",
"6  c #1A500F",
"7  c #1D4514",
"8  c #1C4F11",
"9  c #1F4D18",
"0  c #1C5011",
"q  c #1B5D11",
"w  c #214419",
"e  c #006600",
"r  c #006E01",
"t  c #036C0A",
"y  c #007303",
"u  c #017A05",
"i  c #047209",
"p  c #047C09",
"a  c #0C7C0C",
"s  c #186F14",
"d  c #1F7E18",
"f  c #1C7915",
"g  c #28661F",
"h  c #2B6D1F",
"j  c #2B6822",
"k  c #434343",
"l  c #474148",
"z  c #4C4A50",
"x  c #585859",
"c  c #5C715B",
"v  c #7A7A7A",
"b  c #018205",
"n  c #09860B",
"m  c #0D8B0C",
"M  c #05840B",
"N  c #108D0F",
"B  c #0E940F",
"V  c #169A0F",
"C  c #12940C",
"Z  c #0F8910",
"A  c #168F14",
"S  c #149512",
"D  c #169A11",
"F  c #199D13",
"G  c #199318",
"H  c #1C9F19",
"J  c #268919",
"K  c #15A50B",
"L  c #1CB60E",
"P  c #17A012",
"I  c #1CA214",
"U  c #1DA219",
"Y  c #1FA819",
"T  c #1EA914",
"R  c #20A617",
"E  c #23AB16",
"W  c #24A61C",
"Q  c #26AE1B",
"!  c #26B31B",
"~  c #29B51D",
"^  c #2BBB1D",
"/  c #21BD14",
"(  c #39A726",
")  c #3AAA25",
"_  c #3EAF2A",
"`  c #37A523",
"'  c #2EBC21",
"]  c #30B025",
"[  c #33BE21",
"{  c #43B52D",
"}  c #2DC21E",
"|  c #29C714",
" . c #30C21F",
".. c #34C91F",
"X. c #2FC220",
"o. c #32C421",
"O. c #35CB21",
"+. c #38CF22",
"@. c #3ACD29",
"#. c #37D123",
"$. c #3BD426",
"%. c #3DDB26",
"&. c #3DD32A",
"*. c #3FDD28",
"=. c #41DD27",
"-. c #42DC2A",
";. c #46D62E",
":. c #41E027",
">. c #45E22B",
",. c #48E62C",
"<. c #46E92B",
"1. c #4BEB2D",
"2. c #4CEE27",
"3. c #50ED2F",
"4. c #45FB23",
"5. c #4AFF25",
"6. c #4DF32D",
"7. c #4FFB2D",
"8. c #50F62F",
"9. c #51FB2F",
"0. c #4EEC30",
"q. c #49E631",
"w. c #51E437",
"e. c #4FF332",
"r. c #4FFB31",
"t. c #52F631",
"y. c #53FE32",
"u. c #59FF35",
"i. c #59FF34",
"p. c #59FF37",
"a. c #5BFF35",
"s. c #5AFF35",
"d. c #55FF38",
"f. c #5AFF38",
"g. c #59FF38",
"h. c #5EFF39",
"j. c #5EFF3A",
"k. c #61FF37",
"l. c #60FF3B",
"z. c #60FF3A",
"x. c #63FF39",
"c. c #60FF3C",
"v. c #62FF3B",
"b. c #69FF3D",
"n. c #4E9855",
"m. c #519F55",
"M. c #54A457",
"N. c #55A458",
"B. c #5EB05D",
"V. c #74966C",
"C. c #66FF42",
"Z. c #6DFF41",
"A. c #70FF41",
"S. c #6AC365",
"D. c #71CF69",
"F. c #79D96E",
"G. c #8DFA76",
"H. c #8DFB79",
"J. c #92FF7A",
"K. c #ABADAC",
"L. c #ADB0AD",
"P. c gray69",
"I. c #B8B9B7",
"U. c #B7BCB8",
"Y. c #BCBDBC",
"T. c #C5C5C5",
"R. c #C7C9C7",
"E. c #C7C9C8",
"W. c #CACCCA",
"Q. c #CACCCA",
"!. c #D1D2CF",
"~. c #82593c",
"^. c #82593c",
"/. c #D7D8D7",
"(. c #D8D9D7",
"). c #DAD9DA",
"_. c #EDEDED",
"`. c gray91",
"'. c gray89",
"]. c #EEF1EE",
"[. c gray99",
"{. c #82593c",
"}. c ##82593c",
"|. c #82593c",
" X c #FEFFFE",
/* pixels */
"|.|.|.|.|.|.|.|.|.|.|.|.|.|.|.|.|.|.|.|.|.|.|.|.|.|.|.|.|.|.|.|.|.|.|.|.|.|.|.|.|.|.|.|.|.|.|.|.|.|.|.|.|.|.|.|.|.|.|.|.",
"|.|.|.|.|.|.|.|.|.|.|.|.|.|.|.|.|.|.|.|.|.|.|.|.|.|.|.|.|.|.|.|.|.|.|.|.|.|.|.|.|.|.|.|.|.|.|.|.|.|.|.|.|.|.|.|.|.|.|.|.",
"|.|.|.|.|.|.|.|.|.|.|.|.[.|.|.[.|.[.|.|.|.|.|.|.|.[.|.|.[.|.[.|.|.|.|.|.[.|.|.[.|.[.|.|.|.|.|.|.[.|.|.[.|.[.|.|.|.|.|.|.",
"|.|.|.|.|.|.|.|.|.|.|.|.|.|.|.|.|.|.|.|.|.|.|.|.|.|.|.|.|.|.|.|.|.|.|.|.|.|.|.|.|.|.|.|.|.|.|.|.|.|.|.|.|.|.|.|.|.|.|.|.",
"|.|.|.|.|.[.`._.].].].].].].].].].].].].].].].].].].].]._.].].].].].].].].].].]._.].].].].].].].].].].]._.]._._.[.|.|.|.",
"|.|.|.[.|.Q.o & % X X X X X X X X X X % X X X % X X X X X X X X X X X X X X X X X X X X X X X X X X X X X % & * (.|.[.|.",
"|.|.|.[.|.R.  + 0 0 8 8 0 0 8 8 0 0 0 0 0 0 0 0 8 8 0 8 0 8 0 0 0 0 8 0 8 0 8 0 0 0 8 0 8 8 0 8 0 8 0 8 6 0 O   ^.|.[.|.",
"|.|.|.|.|.W.. w C.c.j.c.j.x.x.a.a.g.g.g.g.f.f.c.c.c.c.c.j.x.x.f.c.c.f.c.x.f.x.x.f.c.c.x.c.x.j.c.j.x.x.c.f.C.>   ~.|.|.|.",
"|.|.|.[.|.Q.  : R F I I I R V $.i.9.9.9.9.y.9.^ F I F I I I R I I I I I R I R F R I R F I U I I I I I I I Y ;   ^.|.|.|.",
"|.|.|.[.|.Q.  = p p p y y y e ^ i.y.y.y.y.9.a.C e p p u p r y y y y y y y r y y r r y p y y y y u y u u y y O   ^.|.[.|.",
"|.|.|.[.|.W.  7 d.e.9.O.y p y  .a.9.y.y.y.9.i.D y >.t.7.e.n y p u u u u u u u u p y ! x.' e  .a.9.8.e.d.F u @   ~.|.[.|.",
"|.|.|.[.|.W.  7 a.y.a.+.y p r ^ a.y.y.9.i.9.i.D y 1.i.y.9.n y u u u u u u u u u u y H -.^ H } %.2.i.9.a.F y @   ^.|.|.|.",
"|.|.|.[.|.W.  7 g.t.a...y u r ^ a.9.y.y.y.9.i.V y ,.y.y.t.n y u u u u u u u u y u u y 3 ~ A.! 2 o.a.9.a.D y @   ^.|.[.|.",
"|.|.|.[.|.W.  7 a.t.a.O.y p y } a.9.y.y.y.9.i.V y ,.y.y.8.n u u u u u y u u u u u y H =.^ D  .$.1.y.y.a.F y @   ^.|.|.|.",
"|.|.|.[.|.W.  7 d.y.d...y u y ^ a.y.y.y.y.9.i.V y ,.i.y.8.n y u y u u u u y u u u y ! k.[ e o.a.y.y.9.a.F u @   ^.|.|.|.",
"|.|.|.[.|.W.  7 g.t.i...r p r ^ a.9.9.y.9.9.i.V y ,.y.y.9.n u u u u u u u u u u u u p r ^ x.! e @.d.9.a.V y @   ^.|.[.|.",
"|.|.|.[.|.W.  7 a.y.a...y p r } a.9.y.y.y.9.a.V y ,.y.y.9.n y u u u u u y u u u u y Z P ^ =.^ V =.y.7.a.F y @   ^.|.[.|.",
"|.|.|.[.|.W.  7 a.t.a...r p y ^ d.9.y.y.y.9.a.V y ,.i.y.8.n y u u u u u u u u u u y ~ Z.' 2  .b.d.r.y.a.F y @   ^.|.[.|.",
"|.|.|.[.|.W.  7 d.t.i...r p r ^ a.9.9.y.y.9.a.V y ,.y.y.9.n u u u y u u u u y u u u m I ' =.^ V =.i.9.a.F y @   ^.|.|.|.",
"|.|.|.[.|.W.  7 d.y.i...y p y } a.9.y.y.y.9.y.V y ,.y.y.t.n y u u u u u u u u u u u u r ~ x.~ e @.a.9.i.V u @   ^.|.[.|.",
"|.|.|.[.|.W.  7 a.y.d...y p r ^ a.y.y.y.9.9.i.V y ,.y.y.8.n u u u u u y u u u u u y ! f.' e  .a.9.y.9.a.V u @   ^.|.|.|.",
"|.|.|.[.|.W.  7 g.t.a.O.y p r ^ a.9.y.y.y.9.y.V y ,.y.y.t.n y u u u u u u y u u u y H =.' D } $.1.y.y.a.F y @   ^.|.[.|.",
"|.|.|.[.|.W.  7 a.t.i...y u r ^ a.9.y.y.y.9.a.V y ,.i.y.7.n y u u u u u u y u u u u y 3 ^ Z.! 2 o.a.7.a.F y @   ~.|.|.|.",
"|.|.|.[.|.W.  7 g.y.a.O.y u y } a.y.y.y.i.9.i.V y 1.y.y.7.m u u u u u b u u u u u y T :.' P  .%.6.y.y.a.V u @   ^.|.[.|.",
"|.|.|.[.|.W.  7 g.q.t.[ e i e ] t.0.0.0.0.0.t.G e ;.t.0.w.a e i i i i t t i t i i e W C.] 2 ' g.1.3.0.t.G t $   ~.|.|.|.",
"|.|.|.[.|.T.    # # # + . . . + # + + # + + # . . # + # # . . . . . . . . . . . . . o # . . . + + + # # o .     ~.|.[.|.",
"|.|.|.|.|./.x k                                                                           .                 k x '.|.|.|.",
"|.|.|.|.|.|.|.T.    .                                                                                       ~.|.|.|.|.|.",
"|.|.|.|.|.[.|.'.K.v   w { ` _ d < 2 < J _ ` ( ( ( ( ( 5 < 2 4 2 < 4 4 < 4 2 2 < s { J , A { ( _ f 2 $   v P.`.|.|.|.|.|.",
"|.|.|.|.|.|.|.|.|.U.  h k.y.a.} y M u =.x.y.i.i.i.a.a.B u M b b b b b b b p M b ! f.#.y O.k.t.v.! u :   W.|.|.|.|.|.|.|.",
"|.|.|.|.|.|.|.[.|.K.  g i.8.i.~ y u y +.i.9.y.9.t.y.t.m y u y u y u u y u r F f.+.e ! a.9.t.9.i.E y -   I.|.[.|.|.|.|.|.",
"|.|.|.|.|.|.[.[.|.K.  g i.9.a.^ r u r +.d.y.y.y.y.y.y.m y u u u u u u u u y S ;.o.D ~ -.<.y.t.i.E u -   Y.|.[.|.|.|.|.|.",
"|.|.|.|.|.|.|.[.|.K.  g a.9.a.~ r p y $.i.9.y.9.y.y.y.m y u u u u u u y u p y e F A.O.2 ~ a.9.a.E y -   Y.|.[.|.|.|.|.|.",
"|.|.|.|.|.|.|.[.|.K.  g i.9.d.^ y p y ..a.y.y.y.y.y.y.m u u u u u u u u u y C -.o.F ~ =.,.y.9.i.E u -   Y.|.[.|.|.|.|.|.",
"|.|.|.|.|.|.[.[.|.L.  g i.8.i.^ r p y $.a.y.y.y.y.y.t.m y u y u u y u u u y F x.+.e ~ f.y.y.y.a.E y -   Y.|.[.|.|.|.|.|.",
"|.|.|.|.|.|.|.[.|.L.  g i.9.y.^ r u y ..a.r.y.y.y.y.y.m y u u u u u u u u y p y R v.o.e ^ i.7.i.E u -   Y.|.[.|.|.|.|.|.",
"|.|.|.|.|.|.|.[.|.L.  g a.8.i.^ r u y +.a.y.y.y.y.y.y.m y u u u u u u y u u n H ! =.[ D +.i.t.a.E y -   Y.|.[.|.|.|.|.|.",
"|.|.|.|.|.|.[.[.|.L.  g a.9.i.^ y p y +.a.y.9.y.y.y.t.m u u u u u u u u u y U Z.$.2 Q b.g.9.y.i.E u -   Y.|.[.|.|.|.|.|.",
"|.|.|.|.|.|.|.[.|.L.  g a.9.i.^ r p y +.a.r.9.y.y.y.y.m y u u u u u u u u y n I ' %.o.S +.i.r.a.E y -   Y.|.[.|.|.|.|.|.",
"|.|.|.|.|.|.|.[.|.L.  g i.8.y.^ r u y +.d.y.y.y.y.y.y.m y u u u u y u u u u u y U j.o.e ^ i.9.i.E y -   Y.|.[.|.|.|.|.|.",
"|.|.|.|.|.|.[.[.|.L.  g a.9.a.~ r p y #.a.y.y.y.y.y.y.m y u u u u u u u u y H x.@.e ! a.y.y.y.i.E y -   Y.|.[.|.|.|.|.|.",
"|.|.|.|.|.|.|.[.|.L.  g i.9.d.^ y p y ..a.y.y.9.y.y.t.m y u y u u u u u u y S -.o.F ^ $.<.y.y.i.E u -   Y.|.[.|.|.|.|.|.",
"|.|.|.|.|.|.|.[.|.L.  g i.8.i.^ r p y ..a.r.y.y.y.y.y.m u u u u u u u u y u y e U b...2 ~ a.r.a.E y -   Y.|.[.|.|.|.|.|.",
"|.|.|.|.|.|.|.[.|.L.  g i.9.y.^ r p y $.a.y.y.y.y.y.y.m y u u u u u u u u y S %.o.D ^ $.<.y.t.i.E u -   Y.|.[.|.|.|.|.|.",
"|.|.|.|.|.|.|.[.|.L.  g a.8.i.^ y u y ..a.r.y.y.y.y.y.m y u u u u u u u u y I x.&.e ! k.y.y.t.i.E y -   Y.|.[.|.|.|.|.|.",
"|.|.|.|.|.|.|.[.|.L.  g a.9.i.^ r p y +.d.y.y.y.y.y.y.m y u u u u y u u u u p r R c.o.e ' a.9.a.E u -   Y.|.[.|.|.|.|.|.",
"|.|.|.|.|.|.|.[.|.L.  g a.9.i.^ r p y #.a.y.y.y.y.y.t.m y u u u u u u u u y n I ! =. .C #.i.9.a.E y -   Y.|.[.|.|.|.|.|.",
"|.|.|.|.|.|.|.[.|.L.  g i.8.y.^ y u y O.a.r.y.y.y.y.y.m y u u u u y i u u y U b.$.2 ! b.d.r.y.a.E y -   Y.|.[.|.|.|.|.|.",
"|.|.|.|.|.|.|.[.|.L.  g a.7.i.^ r u y +.a.y.y.9.y.y.y.m y u u u u u y u u u n F ~ =.[ D &.y.t.a.E y -   Y.|.[.|.|.|.|.|.",
"|.|.|.|.|.|.[.[.|.L.  g a.9.i.! y p y ..i.y.y.y.y.y.y.m y u u u y u u u u u p y U x.o.e ^ a.7.a.E u -   Y.|.[.|.|.|.|.|.",
"|.|.|.|.|.|.|.[.|.L.  g a.t.a.^ r p y $.a.y.y.y.y.y.y.m y u u u u u u u u y H x.#.e ! a.y.9.t.i.E u -   Y.|.[.|.|.|.|.|.",
"|.|.|.|.|.|.[.[.|.L.  g i.7.d.^ y u y ..a.y.9.y.y.y.y.m y u u u u u u u u y S -.o.D ^ &.q.i.y.i.E y -   Y.|.[.|.|.|.|.|.",
"|.|.|.|.|.|.|.[.|.L.  g s.7.a.^ y u y +.a.y.y.y.y.y.y.m y u u u u u u u u u y 3 I Z.O.2 ~ a.9.i.E y -   Y.|.|.|.|.|.|.|.",
"|.|.|.|.|.|.|.[.|.K.  g s.7.a.^ r p r +.d.y.y.9.9.y.y.m y u u y u u u y u y S =.X.F ^ $.1.y.9.i.E u -   Y.|.[.|.|.|.|.|.",
"|.|.|.|.|.|.|.[.|.L.  g f.t.f.' y p y $.a.y.y.d.d.d.y.m u p u p u p u p p y U C.@.e ~ x.y.y.d.a.Q u :   Y.|.[.|.|.|.|.|.",
"|.|.|.|.|.|.[.[.|.K.  q 7.4.5.L e y r | 7.4.5.5.5.5.5.b r y y y r y y r y y y y K 7.| e / 7.4.9.K r @   I.|.[.|.|.|.|.|.",
"|.|.|.|.|.|.|.[.|.T.l V.J.G.J.D.m.N.M.F.G.G.G.G.H.G.G.B.M.M.M.M.N.M.M.M.M.M.M.m.S.J.F.n.D.J.G.H.S.M.c z !.|.[.|.|.|.|.|.",
"|.|.|.|.|.|.|.|.|.|.|.|.|.|.[.|.|.|.|.|.|.|.|.|.|.|.|.|.|.|.[.|.|.|.|.|.|.[.|.|.|.[.[.[.|.|.|.|.|.|.|.|.|.[.|.|.|.|.|.|.",
"|.|.|.|.|.|.|.|.|.[.[.[.|.[.[.[.[.[.[.[.[.[.[.[.[.[.[.[.[.[.[.[.[.[.[.[.[.[.[.[.[.[.[.[.[.[.[.[.[.[.[.[.[.|.|.|.|.|.|.|.",
"|.|.|.|.|.|.|.|.|.|.|.|.|.|.|.|.|.|.|.|.|.|.|.|.|.|.|.|.|.|.|.|.|.|.|.|.|.|.|.|.|.|.|.|.|.|.|.|.[.|.|.|.|.|.|.|.|.|.|.|."
};
