/* XPM */
static char *_aae1aa5bd4e468d99dd03c4906e51d2X2R45K4FUxqWnxkD[] = {
/* columns rows colors chars-per-pixel */
"60 60 239 2 ",
"   c None",
".  c #312932",
"X  c #161839",
"o  c #580505",
"O  c #571919",
"+  c #490F0F",
"@  c #680707",
"#  c #780A0A",
"$  c #6B1515",
"%  c #771919",
"&  c #493939",
"*  c #573838",
"=  c #502828",
"-  c #6B393B",
";  c #733132",
":  c #5C3D17",
">  c #396737",
",  c #6E4C1E",
"<  c #544435",
"1  c #795625",
"2  c #664D34",
"3  c #0D1849",
"4  c #0F1A54",
"5  c #111E5B",
"6  c #101946",
"7  c #14235C",
"8  c #2E314E",
"9  c #121E60",
"0  c #16256C",
"q  c #182767",
"w  c #192878",
"e  c #243475",
"r  c #33386E",
"t  c #4A3C47",
"y  c #433F67",
"u  c #37437B",
"i  c #3C415A",
"p  c #584749",
"a  c #56585A",
"s  c #524B4D",
"d  c #685858",
"f  c #6D4B4A",
"g  c #4E7556",
"h  c #796856",
"j  c #5A5863",
"k  c #494D76",
"l  c #665F63",
"z  c #5D6170",
"x  c #68696C",
"c  c #696C74",
"v  c #6D7175",
"b  c #767579",
"n  c #716674",
"m  c #901314",
"M  c #A41C1C",
"N  c #B21E1E",
"B  c #912B2B",
"V  c #BA2626",
"C  c #AF2929",
"Z  c #CA2C2C",
"A  c #D72D2D",
"S  c #C63839",
"D  c #D93334",
"F  c #E43333",
"G  c #E93635",
"H  c #FC3C3D",
"J  c #F43738",
"K  c #9B743A",
"L  c #8B6734",
"P  c #A67B3B",
"I  c #865F24",
"U  c #CB4C2B",
"Y  c #A43E40",
"T  c #8C5049",
"R  c #8E6F4C",
"E  c #A27D46",
"W  c #907371",
"Q  c #A76F71",
"!  c #A15558",
"~  c #D84443",
"^  c #FE4344",
"/  c #EA4C4D",
"(  c #F2786E",
")  c #C57778",
"_  c #6C956E",
"`  c #48825C",
"'  c #A8813D",
"]  c #B58C4C",
"[  c #AB9173",
"{  c #B4A37D",
"}  c #C7964B",
"|  c #CD8F4B",
" . c #D4A557",
".. c #CDA35D",
"X. c #D4AE6B",
"o. c #E6B766",
"O. c #E7BE79",
"+. c #E3AE5D",
"@. c #F6CC7B",
"#. c #EDC677",
"$. c #1A2A8C",
"%. c #1A2983",
"&. c #1C2B93",
"*. c #1E2C9C",
"=. c #1F3096",
"-. c #273786",
";. c #212E9B",
":. c #243494",
">. c #2B3C94",
",. c #23339B",
"<. c #26399A",
"1. c #2B3C9D",
"2. c #263896",
"3. c #353C90",
"4. c #1F2EA3",
"5. c #1E31A3",
"6. c #222EA5",
"7. c #212FAA",
"8. c #2A3CA4",
"9. c #2333AC",
"0. c #2537A7",
"q. c #2739B4",
"w. c #35488B",
"e. c #2D4397",
"r. c #354697",
"t. c #3C5398",
"y. c #2E4788",
"u. c #2B43A3",
"i. c #2C43AC",
"p. c #3447A6",
"a. c #3957A8",
"s. c #2C44B6",
"d. c #3847B8",
"f. c #3959B9",
"g. c #3D60BD",
"h. c #4B558C",
"j. c #625E8D",
"k. c #5D6594",
"l. c #59698E",
"z. c #7A7C84",
"x. c #676F98",
"c. c #767C9A",
"v. c #6A6E91",
"b. c #4D5AAB",
"n. c #4567B7",
"m. c #6773AB",
"M. c #717AAD",
"N. c #2A3AC6",
"B. c #2E3DD6",
"V. c #313EDD",
"C. c #343DE0",
"Z. c #364BC7",
"A. c #3856C8",
"S. c #2E42D4",
"D. c #3A4DD7",
"F. c #344CDA",
"G. c #3C4DDB",
"H. c #3344D8",
"J. c #3A54D4",
"K. c #3653DB",
"L. c #3A5ADC",
"P. c #3855D6",
"I. c #2E46C5",
"U. c #3E62DA",
"Y. c #3A47E5",
"T. c #3C55E3",
"R. c #3E63E1",
"E. c #4453DB",
"W. c #4755DA",
"Q. c #4657D4",
"!. c #4266D9",
"~. c #537DD7",
"^. c #5372CB",
"/. c #4A55E5",
"(. c #444EE8",
"). c #436AE1",
"_. c #4B72E1",
"`. c #5379E2",
"'. c #6577D7",
"]. c #8D7B82",
"[. c #7D8185",
"{. c #7E87AF",
"}. c #6885E4",
"|. c #85878A",
" X c #8A8D93",
".X c #848A92",
"XX c #8D9298",
"oX c #91969C",
"OX c #98999B",
"+X c #958E95",
"@X c #A79290",
"#X c #858BA5",
"$X c #979BA4",
"%X c #9297AE",
"&X c #9BA3B5",
"*X c #9AA1A7",
"=X c #A4A7AC",
"-X c #A5ABB1",
";X c #AAACB4",
":X c #ADB3BB",
">X c #ABB1B6",
",X c #B6B7BB",
"<X c #9E9EA2",
"1X c #CBB393",
"2X c #CBB3B5",
"3X c #DD9294",
"4X c #A1CA98",
"5X c #F9D485",
"6X c #F3CD87",
"7X c #C7CABF",
"8X c #F2D9AA",
"9X c #F9E9B6",
"0X c #8592C9",
"qX c #99A4CA",
"wX c #B7BCC4",
"eX c #AAB3D8",
"rX c #8B96E4",
"tX c #DEBFC1",
"yX c #BDC3CA",
"uX c #BAC0C7",
"iX c #B8C3EA",
"pX c #CBCBCC",
"aX c #C4C7CA",
"sX c #C5CCD3",
"dX c #CACDD3",
"fX c #CCD4DB",
"gX c #CAD0D5",
"hX c #D5D7D9",
"jX c #D1CFCA",
"kX c #E1DACD",
"lX c #F0E7D3",
"zX c #D5DDE4",
"xX c #D9DCE7",
"cX c #C4CDE6",
"vX c #EADEE5",
"bX c #DAE3EB",
"nX c #E8E9EA",
"mX c #EEF0F2",
"MX c #DCE3D2",
/* pixels */
"                                                                                                                        ",
"                                                                                                                        ",
"                                                          }.~.~.~.~.}.^.^.                                              ",
"                                                  }.`._.!.!.U.L.f.f.a.f.a.a.a.a.                                        ",
"                                              }._.R.U.L.P.P.Z.I.s.i.i.u.e.e.r.w.                                        ",
"                                          `._.R.R.U.U.P.A.I.I.i.8.1.e.e.r.r.y.                                          ",
"                      8.J.!.          `._.R.R.T.R.L.P.A.A.Z.s.i.8.1.e.r.e.e.                                            ",
"                      y k d.D.Q.^.  _.).T.T.L.K.K.P.P.P.A.s.3.e.a.r.>.2.2.                                              ",
"                      r R d q.C.P.!.U.K.K.K.F.F.F.K.T.Z.r f W w.n.g.f.g.^.                                              ",
"                        l P d b.P.L.F.H.F.H.H.S.K.L.h.t I E [ 3.t.u.s.s.A.f.n.n.                                        ",
"                        3.[ E b.K.F.D.D.H.S.H.B.S.3.2 I K } W >.w.e.0.9.q.s.s.s.a.f.n.                                  ",
"                          k.m.P.D.J.E.G.G.F.B.N.q.&.r h }  .j.-.w.2.5.9.9.9.9.u.u.u.a.a.                                ",
"                          Q.P.D.J.E.E.E.E.H.V.B.N.9.6.:.j.[ 3.-.w.2.6.4.6.9.0.<.e.>.e.e.r.t.                            ",
"                        A.K.D.E.W.W.E.W./.Y.H.B.B.S.N.q.6.0.6.:.>.1.,.4.*.*.;.2.:.>.>.>.r.w.t.                          ",
"                        w.A.J.W.W.W.E././.(.Y.V.B.B.S.I.q.q.9.8.8.1.2.,.&.$.%.w w -.w -.-.-.w.t.                        ",
"                        b.{.D.W./././././.Y.Y.Y.H.S.N.q.q.8.p.u.1.8.,.:.%.w 0 0 0 0 0 0 w e e y.                        ",
"                        m.dX^.E./.Y././.(.(.C.q.8.h.h.e %.&.1.1.1.1.1.-.q q q 5 5 5 5 9 q q 0 e w.                      ",
"                        m.hXqXH.(.H.(.Y.C.N.1.x.%XwX,X;Xv.*.<.1.8.1.>.e 4 4 4 4 4 4 4 4 3 4 4 7 w                       ",
"                          dXgX^.V.V.Y.C.q.-.` jXjXpXpX7X#X6.0.<.,.<.e.w.                  3 3 6 4 q                     ",
"                          wXMXx.N.N.B.N.t.g > 7XhXpXpX2XM.6.,.;.:.,.<.r.r.            {.{.c.v.                          ",
"                          0XMX_ y.4.q.,.%X_ ` MXhXjXjX;Xp.;.&.&.&.=.,.e.p.r.      M.m.x.v.c.{.&X                        ",
"                            kX7XOXc.l.oXlX4X4XlXvXkXwXb.;.$.$.&.&.&.=.5.8.p.p.h.k.k.v.c.{.%X&X:X>X                      ",
"                            5X{ . s X.8X9XlXlXlX9X8X1XW e $.$.&.&.&.*.5.6.0.8.b.h.l.x.{.%X&X&X&X-X*X                    ",
"                             . .K L X.@.6X5X5X@.#.X.X.] r %.$.$.&.&.&.4.5.9.9.q.h.h.v.{.%XXXc a z.OX                    ",
"                              K ' }  .+.+.+.+.X.{ ] P s 0 w %.%.$.$.&.*.4.4.7.q.r.k j.c.%XoXs 8 x z.                    ",
"                              A.h.d T L P E E E L 2 8 q 9 0 0 w w w $.&.*.4.7.7.i.w.k j.{.$XOX X|.                      ",
"                            J.Z.q.2.e 8 8 . . X X X 3 . p 8 q 0 w w %.$.*.*.4.7.0.p.w.  j c b z.                        ",
"                          A.f.s.s.i.8.3.e w w w e r 8 q         q w w %.$.*.4.7.9.u.t.                                  ",
"                          u.e.u.i.b.v.a.b.d.b.@XX...] d             w w %.&.*.4.4.6.r.                                  ",
"                                  +X..h.Q.^.1X5X@.#. .K               w %.$.&.;.7.6.e.                                  ",
"                                  5X] k P.$X@.@.#.o.} K                   %.:.;.6.6.2.                                  ",
"                                  @.E e a.[ o.X.X.] K L                     %.&.6.7.2.                                  ",
"                            iXeX1X#.R e u K ' ' P L 1                           ;.7.,.                                  ",
"                          iX0X'.1X .p 7 8 , 1 1 1 : 8 2.u.                        ;.,.                                  ",
"                        '.'.Z.b.O.] t r k d , : : 8 :.s.Z.I.                                                            ",
"                      D.d.:.w j #.} j.M.v.#X          i.Z.T.G.J.                                                        ",
"                    p.-.9 4 3 j @.| v c c {.            s.Z.(.T.G.L.                                                    ",
"                      v.#X].y h @.} d a c ].                I.G.D.D.G.                                                  ",
"                      mXmXsX+X[ @.} h j d Y                   i.s.Z.G.T.T.  cXxXzX                                      ",
"                  3XtXvXcXwX&X1X6X..T - % B ~                   1.s.Z.T.T.`.cXsXaX                                      ",
"                ( ^ H / 2XyXdXdXpX,X=X+XT m C                       q.!.rXiXuX$XwXbXxX                                  ",
"              ^ ^ H J A V <XXX XoXoXOXoX- # B W                     &XuXgX-X|.*XfXsX,X                                  ",
"            ^ H H G D Z N ! ;X>X>X&X$X.X- $ d |.                    >X-X X[.$XyXyX$XW Z /                               ",
"          ^ ^ H G D V M M Q $X|.].z.v l f f x                       v j v  X,X>X[.x - Q tXnXlX9X                        ",
"        ^ H G D V C M B 2XmXxXyXwXwX>X Xx                             * x $XoXx s * W ;XpXxXvXnX9X                      ",
"        ~ F Z V M m B pXmXbXbXbXzXfXuXwX=X                            $ - p & . & v OX,XpXhXvXnXnX9X                    ",
"        W ! B m $ B uXmXbXbXbXzXhXsX;X=X$X                            ; o o + O b OX,XaXpXgXgX2X3X( |                   ",
"              p d wXbXbXbXzXzXfXsX-Xz.|.|.                              O o o - +X=X,XpXpXaX3X~ G J J U                 ",
"                yXwXsXyXfXzXfXfXuX[.a v  X                              * O o f .XOX;XuX2X) F F F G J H ^               ",
"              xX-XoXuXoXyXyXyXfX:X[.  v *X,X                              * O f ].+XOX=XQ D F G F F F J H H             ",
"          zXsX$Xv uX-Xb gX-X[.yX>X[.    oXuXaX                              & d b _ |.|.B N Z D G F F F G G ^           ",
"           Xx v uXuXv XXzX[.v bXwX[.    [.:XyX:X                                a x W d $ m M V Z D A A D D F           ",
"            -XgX,Xv a zXyXz.  bXaXXX      [..Xb                                   a x p o @ # m M N V Z Z Z F ~         ",
"          zXaX*Xv     fX:Xv   fXsX=X                                                  * O o o @ @ # m m V V Z S         ",
"          .Xv a     fXyXoX    fXfX;X                                                      * O + o @ @ m m m M C W       ",
"                  yX,XoXv     zXfX=X                                                          & = = O O $ $ % - d       ",
"                  |.v a       -XoXz.                                                                  & & & < s         ",
"                                                                                                                        ",
"                                                                                                                        ",
"                                                                                                                        "
};
