/* XPM */
static char *_6cf72ce5ee84531dbe5432e85d1f07f6WBUbC36RJz1L0SF[] = {
/* columns rows colors chars-per-pixel */
"62 64 236 2 ",
"   c #151515",
".  c #0E0E0E",
"X  c #00002F",
"o  c #010138",
"O  c #14143E",
"+  c #333334",
"@  c #2A241C",
"#  c #4E3E28",
"$  c #087501",
"%  c #2B6826",
"&  c #020244",
"*  c #02044C",
"=  c #0D0B4D",
"-  c #161747",
";  c #00005D",
":  c #040955",
">  c #0D125A",
",  c #1A1C51",
"<  c #041C4A",
"1  c #262857",
"2  c #322E52",
"3  c #030A63",
"4  c #00036A",
"5  c #000366",
"6  c #0B146A",
"7  c #000374",
"8  c #030A72",
"9  c #040B7C",
"0  c #04087C",
"q  c #0B187A",
"w  c #101B71",
"e  c #172A70",
"r  c #252866",
"t  c #32397A",
"y  c #2B3372",
"u  c #443559",
"i  c #49485B",
"p  c #555156",
"a  c #615B58",
"s  c #6A4B4C",
"d  c #437343",
"f  c #545672",
"g  c #656678",
"h  c #756F72",
"j  c #666A69",
"k  c #9C6B3E",
"l  c #AB7330",
"z  c #9A7A47",
"x  c #9B7B58",
"c  c #128B03",
"v  c #278714",
"b  c #26A217",
"n  c #239C19",
"m  c #469E3B",
"M  c #609A55",
"N  c #4EA44E",
"B  c #6BA266",
"V  c #BE8134",
"C  c #CB8C3B",
"Z  c #B7945B",
"A  c #A68854",
"S  c #A39267",
"D  c #AE986A",
"F  c #B5A277",
"G  c #9C826F",
"H  c #C59C58",
"J  c #CA984E",
"K  c #DBAB5D",
"L  c #DDB05F",
"P  c #E3AE58",
"I  c #F2AF4A",
"U  c #C29B65",
"Y  c #D9AD65",
"T  c #D7B46B",
"R  c #CAAB73",
"E  c #E5B96C",
"W  c #E5B565",
"Q  c #F2BF68",
"!  c #FCC366",
"~  c #FBC56A",
"^  c #FECA6D",
"/  c #F1C46E",
"(  c #FDCC74",
")  c #FBCB7A",
"_  c #F7C675",
"`  c #FFD273",
"'  c #FFD37B",
"]  c #FFD97C",
"[  c #FFD973",
"{  c #E6C16D",
"}  c #020C87",
"|  c #04138C",
" . c #0A1885",
".. c #111F84",
"X. c #000D9A",
"o. c #0C1C93",
"O. c #03139B",
"+. c #0C1B9A",
"@. c #071697",
"#. c #121D91",
"$. c #0F228B",
"%. c #162587",
"&. c #0E2399",
"*. c #152898",
"=. c #1E349B",
"-. c #2A328F",
";. c #040EAC",
":. c #051AA3",
">. c #0B1BA3",
",. c #0413AD",
"<. c #0119AB",
"1. c #0B1CAA",
"2. c #0315A3",
"3. c #060FB1",
"4. c #0613B5",
"5. c #0916B5",
"6. c #041CB4",
"7. c #0B1BB6",
"8. c #0614B9",
"9. c #0816BA",
"0. c #061ABC",
"q. c #0A1CBC",
"w. c #0D22AD",
"e. c #0D23A7",
"r. c #132AAB",
"t. c #1933A6",
"y. c #0621B4",
"u. c #0E23B5",
"i. c #0621BA",
"p. c #0D23BC",
"a. c #0E2ABC",
"s. c #1125B5",
"d. c #1026BB",
"f. c #1329BC",
"g. c #132CB5",
"h. c #1A35B7",
"j. c #253BA3",
"k. c #203BBD",
"l. c #3A4995",
"z. c #374AA1",
"x. c #3149AF",
"c. c #444C85",
"v. c #4A599A",
"b. c #4C518C",
"n. c #625A86",
"m. c #5B689D",
"M. c #5C658F",
"N. c #686D91",
"B. c #4757A3",
"V. c #465BB9",
"C. c #5867AF",
"Z. c #6974A7",
"A. c #6B75A8",
"S. c #071AC4",
"D. c #091DC2",
"F. c #071CC8",
"G. c #091EC9",
"H. c #0621C2",
"J. c #0C23C3",
"K. c #0E29C5",
"L. c #0B23CA",
"P. c #0E29CA",
"I. c #1026C2",
"U. c #1229C3",
"Y. c #122ACB",
"T. c #192FC6",
"R. c #1734C9",
"E. c #102BD2",
"W. c #1533DC",
"Q. c #223EC6",
"!. c #1434E4",
"~. c #6C7EC3",
"^. c #837E93",
"/. c #7F829C",
"(. c #7B83AA",
"). c #7784B6",
"_. c #7888C3",
"`. c #898889",
"'. c #989898",
"]. c #8B8B95",
"[. c #A79D83",
"{. c #90B58F",
"}. c #97B797",
"|. c #87B787",
" X c #A9A79D",
".X c #AEB493",
"XX c #8E92AB",
"oX c #9497AC",
"OX c #8B94B7",
"+X c #969BB5",
"@X c #868BAB",
"#X c #A29FAB",
"$X c #9CA1B8",
"%X c #A7A7A8",
"&X c #A7AABA",
"*X c #B8B8B9",
"=X c #AFB4A4",
"-X c #C6B08A",
";X c #C4BEB5",
":X c #C2BBAB",
">X c #9EC59B",
",X c #BDC6B8",
"<X c #A2C1A2",
"1X c #D4C399",
"2X c #FFD881",
"3X c #CCC4B3",
"4X c #99A3C8",
"5X c #AEB1C3",
"6X c #B7BAC5",
"7X c #A9AEC2",
"8X c #BDC1CB",
"9X c #C5C5CA",
"0X c #C7C7C6",
"qX c #D1D0CE",
"wX c #D6D6C8",
"eX c #C7CAD6",
"rX c #D2D3D4",
"tX c #DBDADB",
"yX c #D8D8D7",
"uX c #D2D1C6",
"iX c #E4E3DD",
"pX c #DBDCE1",
"aX c #E1DBE1",
"sX c #E3E3E2",
"dX c #EBEAE4",
"fX c #EDECEB",
"gX c #E7EEE7",
"hX c #F4F3ED",
"jX c #ECEEF1",
"kX c #82593c",
"lX c #FBFAF4",
"zX c #82593c",
"xX c #FFFFFE",
"cX c #FDFEFD",
"vX c #82593c",
"bX c #F1EFEF",
/* pixels */
"kXkXkXkXkXkXkXkXkXkXkXkXkXkXkXkXkXkXkXkXkXkXkXkXkXzXkXkXkXkXkXkXkXkXkXkXzXkXkXvXkXkXkXkXkXkXkXkXkXkXkXvXvXzXkXkXvXzXkXkXkXvX",
"kXkXkXkXkXkXkXkXxXxXxXkXkXkXkXkXkXkXkXkXkXkXkXkXkXvXkXkXkXkXkXkXzXkXkXkXkXkXkXkXkXkXkXkXzXkXkXkXkXzXkXkXkXkXkXkXkXkXvXkXzXkX",
"kXkXkXkXkXkXkXxX*Xg qXxXkXkXkXkXkXkXkXkXkXkXkXkXkXkXvXzXkXkXkXkXkXkXkXkXkXkXkXzXkXkXkXkXkXkXkXkXkXkXkXkXkXkXkXkXkXvXzXkXkXkX",
"kXzXvXkXkXkXxX0X: <.e 6XcXkXkXkXkXkXkXkXkXkXkXkXkXkXkXkXkXkXkXkXkXkXjXkXkXkXkXkXkXkXzXkXkXkXkXkXkXvXzXkXkXvXzXkXkXkXkXkXkXkX",
"kXvXkXkXkXzXlX2 O.R.P.y iXxXkXkXkXkXkXkXkXkXkXkXkXkXzXcXcXcXxXxXcXcXxXlXcXlXhXvXkXkXkXkXkXkXkXkXkXkXkXkXvXzXkXkXkXkXkXkXkXvX",
"kXzXkXkXkXxX%X& s.s.K.w.f xXkXkXkXkXkXkXkXkXcXxXcXlXgXpXeX8XeX8XpXtX4XB.y yXxXcXkXzXkXkXkXkXkXkXvXkXkXkXkXkXkXvXkXzXvXkXkXzX",
"kXvXkXkXkXxXi 5 w.a.u.Y.@.`.xXkXkXkXkXxXcXlXyX$X).C.x.x.R.h.g.&.%.=.u.H.7 i 9XtXzXcXzXkXkXkXkXkXkXkXkXkXkXkXkXkXkXvXkXkXkXkX",
"kXkXkXkXkXfX, 8 s.u.a.i.W.&.].cXkXxXcXyXoXv.j.a.i.K.L.J.U.U.o.$.i.8.i.I.+.X o > b.+XdXxXkXkXkXkXkXkXvXzXkXvXkXzXzXkXvXkXkXkX",
"kXkXkXkXvXiXO 0 s.p.u.p.J.W.*.oXlX3XM.=.y.i.U.I.s.s.s.f.u.$.t.H.%.g c.u.+.o * } 5.:.-.+XhXxXzXkXzXkXkXkXkXvXkXkXkXkXkXkXkXkX",
"kXkXkXkXcXiX= 0 s.p.p.a.p.J.!.e.y *.i.J.p.a.u.s.u.s.u.w.$.h.K.t T [ T *.+.X 3 s.f.f.p.:.l.&XlXxXkXkXkXkXkXzXkXkXkXkXkXkXzXvX",
"kXkXkXkXzXdX- 7 u.I.p.p.J.P.&.$.I.P.J.u.7.7.7.7.u.d.s.%.h.L.t { ( ~ { =.@.o  .d.d.d.a.I.D.w.v.qXxXkXkXkXkXkXkXkXvXkXzXkXkXkX",
"kXkXkXkXkXvX2 4 >.J.J.J.J.o.*.Y.J.7.p.q.7.5.5.1.p.u.q h.P.*.R ` _ ( Y r.| o +.d.7.7.7.u.s.U.P.t.oXcXzXkXvXkXvXkXkXkXkXvXkXkX",
"kXkXkXkXbXxXf ; | p.J.P.o.&.E.H.D.D.q.9.8.3.4.7.7.&.t.Y.:.[.] _ ) ( U >.| o 1.q.5.5.5.5.7.7.d.Y.u.A.lXlXkXvXkXkXvXkXzXkXvXkX",
"kXkXkXkXkXcX%X& } >.Y.>.$.E.J.J.D.9.9.8.4.4.5.7.u.f.I.7.c.] _ ( _ ` G <.9 & u.q.5.5.5.3.5.7.q.q.I.y.m.lXvXkXkXkXkXkXkXvXzXkX",
"kXkXkXkXkXzXfX, 4 | @.q I.L.G.q.9.8.8.8.8.5.q.p.d.a.f.<.x ] ) ( _ ` h 5.q * d.7.5.8.4.3.;.;.5.7.5.d.6.m.hXvXkXvXkXkXkXkXvXkX",
"kXkXkXkXkXkXcX%Xo  .: o.L.H.D.9.8.4.4.8.q.q.p.d.d.J.f.u.2 I ^ ( _ ` g 5.8 : d.7.7.7.4.4.3.;.3.3.8.7.7.y.Z.cXkXzXkXkXkXkXzXkX",
"kXkXkXkXkXzXxXyXe E.$. .J.q.9.9.5.4.8.9.i.I.d.s.f.a.d.f.6.2 l I Q ! n.0.8 3 I.u.p.7.q.7.5.3.5.3.3.3.5.d.y.XXxXkXkXkXkXkXkXkX",
"kXkXzXvXkXvXvXc.0.U.I.&.7.q.4.8.4.4.5.q.I.I.d.7.s.I.d.d.f.J.#.u k I c.9.8 9 d.p.7.p.p.q.7.5.5.4.5.4.5.7.U.h.8XxXkXkXkXkXkXkX",
"kXkXkXkXkXxX*X| U.I.p.p.7.9.5.8.4.5.9.u.e.*.$.$.%...&.f.f.s.U.H.+.t =.p.8 o.U.p.d.d.d.p.d.7.7.q.7.5.7.s.s.P.z.hXzXkXkXkXkXkX",
"kXkXkXkXkXxXXX<.o.} U.7.q.9.5.8.8.0.p.r.g.f.f.f.f.r.$.q w.f.s.s.I.D.D.d.@.d.J.p.p.p.p.d.d.d.d.d.d.d.f.f.g.f.Y.).cXkXkXkXkXkX",
"kXkXkXkXjXxX5X} 1 N.:.J.q.5.5.9.q.u.u.K.Y.a.1.u.f.I.U.t.6 s.d.d.d.d.I.D.J.J.J.p.J.I.I.p.U.d.1.>.+.X.2.,.6.6.Y.R.9XcXkXkXkXkX",
"kXzXvXkXkXvXjX- &XiX%.i.7.9.7.q.q.u.Y.1.4 = 1 , 8 e.s.f.r.q d.I.I.J.p.I.J.J.J.J.J.L.U.p.@.8 5 & = r b.Z.m.l.%.<.x.kXkXkXkXkX",
"kXvXkXkXzXvXkX`.cX3Xe D.7.9.q.7.u.d.9 O a '.*X%Xh - @.g.d...o.I.J.J.J.L.J.J.J.J.L.L.L.J.r. .r #XaXhXcXvXcXkXyX+Xv.$XcXkXkXkX",
"kXzXkXkXkXxX0X*XlXj < I.p.q.7.p.I.} 2 *XxXcXkXgXtX`.& w.d.s.q d.L.J.J.G.G.J.G.D.L.L.L.J.K.U.R._.fXxXkXkXkXkXcXcXlXtXkXkXkXkX",
"kXvXzXkXkXxX'.kX,X% < T.d.7.p.I.O.O uXxX%XrXcXcXcXsXi } U.d.&.w.L.J.J.D.D.S.D.G.G.L.L.L.L.q.p.6.z.rXxXjXkXkXkXkXzXcXkXkXkXkX",
"kXkXkXkXvXfX'.xXB $ e U.>.p.p.d.* '.xXaX% d xXcXcXcX'.5 U.d.e.w.L.G.D.S.S.S.D.S.G.G.G.L.J.J.p.d.i.t.6XcXjXkXkXkXkXkXkXkXkXkX",
"kXkXkXkXxXrX'.xXM c e >.o.d.f.} p cXcX}.N d cXcXcXxXwX6 J.J.w.u.L.D.G.S.S.S.S.S.F.S.D.D.D.H.J.d.s.J.t.*XxXkXkXkXkXkXkXkXvXkX",
"kXkXkXkXxX6X=XcXN b e q e.f.d.6 0XcXtXm $ B xXcXcXcXyXw K.p.q.7.G.G.D.S.S.S.S.S.D.0.0.q.q.i.q.p.p.d.K.r.6XxXkXkXkXkXkXkXzXkX",
"kXkXkXjXxX=X*XcXm b 1 5 e.U.2.f xXxX,Xn $ >XxXcXvXxX0Xq P.p.p.D.D.S.F.F.F.S.S.S.S.S.9.0.q.q.q.J.p.p.d.K.=.qXkXkXkXkXkXkXkXkX",
"kXkXxXxXxX&X0XxX|.<X^.X g.Y.w *XxXxX>Xc v wXxXvXvXxX#X| P.J.H.D.S.F.F.F.F.S.S.S.9.S.S.S.q.D.q.H.J.p.p.s.a.z.gXkXkXzXkXkXkXkX",
"kXcX0X`.vX*X*XxXcXxXxXg 7 q '.xXvXxX{.c m kXcXcXxXxXn.<.P.L.G.q.q.S.F.S.S.S.S.S.9.0.q.S.S.D.q.q.q.J.J.d.f.i.A.xXkXkXkXkXkXkX",
"kXxXa . h  X8XxXcXcXxXxX6X0XxXxXcXxX<Xc {.cXcXcXxXhXy H.J.L.H.q.9.0.S.S.S.S.S.S.S.9.0.S.D.0.D.q.7.p.D.J.p.f.&.6XxXkXkXkXzXkX",
"kXxX`.. p + '.xXzXcXxXxXxXxXcXcXcXxXgX{.kXxXcXzXxX].O.U.H.G.S.q.0.0.S.S.F.S.S.q.D.9.9.S.9.q.D.D.9.q.J.J.J.d.u.B.lXvXkXkXkXkX",
"kXvXdX+ . + + ].1X1X3XiXxXcXcXxXxXxXxXxXxXxXxXxX%Xq J.J.J.L.L.G.S.S.q.D.G.G.D.S.D.D.q.S.S.9.9.D.D.p.q.J.J.d.U.e.8XxXkXkXkXkX",
"kXkXxXsXp   @   H ] / R *XlXxXxXcXxXxXxXcXfXaXA. .I.I.p.J.L.D.D.S.q.S.S.S.S.S.S.D.D.D.9.q.S.S.D.D.D.D.J.J.J.d.q.Z.cXkXkXkXkX",
"kXkXkXlXcX*X# @ A ' ~ ` L -XyXcXxXzXpX:X-XR Z p e.J.I.J.J.J.D.q.q.q.S.S.S.L.S.J.D.D.D.D.9.D.S.9.q.q.q.q.q.J.d.D.t.tXcXkXkXkX",
"kXkXkXkXkXkXR _ ( ( ^ / ( ^ Y R -XR R W ( ' 2X2XH 2 i.P.J.J.J.G.G.q.S.D.J.D.H.D.D.L.D.9.D.q.S.D.q.q.q.D.D.J.d.d.i.4XcXkXkXkX",
"kXkXkXkXkXcX=XE ' ^ ~ ~ ~ ^ ^ ~ ~ ~ ( ( ) ( ) _ 2XP 2 J.I.L.J.G.D.q.q.S.S.D.D.p.>.q.J.D.9.9.q.S.D.q.q.D.D.p.I.d.H.C.vXkXkXkX",
"kXkXkXkXkXzXjXS ) ( ~ ! ~ ~ ! ^ ~ ~ ~ ) ( ) ) ) ) ] k >.L.J.p.D.7.q.q.S.S.D.D.d.w.} 3.p.D.q.q.9.9.q.9.D.q.q.p.d.J.R.tXcXkXkX",
"kXkXkXkXzXkXcXqXA ` ~ Q ! ! ! ~ ~ ~ ^ ^ ) 2X) E _ ) C %.P.u.>.L.q.9.q.q.7.q.q.7.I.*.5 X.7.p.q.q.S.9.S.q.D.J.p.7.d.a.4XcXkXkX",
"kXkXkXkXkXkXkXxX6XS ^ ~ ! ! ! ~ ^ W K W E H z Y ) ( V #.Y.q 1.J.p.q.9.q.7.q.q.i.7.R.8 5 } 1.D.D.9.9.9.9.7.D.q.p.d.i.~.lXkXvX",
"kXkXkXkXkXkXkXkXxXrXF { ` ^ ~ / ~ Q H z z z E ) ( I s 7.w 4 u.J.p.q.q.7.9.9.q.u.p.Y.*.= ; } 1.q.q.9.5.9.q.q.p.p.d.H.V.vXzXkX",
"kXkXkXkXkXkXkXkXbXxXfX=XZ L ~ ( ( ^ ] ] 2X2X2X( I l > > & 0 7.d.J.p.7.9.7.9.q.q.a.J.r.5X&Xt 7 2.p.4.8.8.9.q.p.p.d.J.x.sXvXkX",
"kXkXkXkXkXkXkXkXkXkXvXcXyX=XS Z J K L L W W L J z a - X * 9 e.I.d.p.p.7.7.7.7.q.p.J.6.+XxXvX@X3 X.q.4.8.9.q.J.d.d.J.h.yXxXkX",
"zXvXkXkXkXkXkXvXkXzXkXkXcXxXzXtXqXuX3X:X;XuXwXaXjXcXfXoX, ; +.f.p.I.p.q.7.7.7.u.J.I.0.m.cXkXcX9Xy X.J.5.7.9.p.p.a.J.h.eXxXkX",
"kXkXkXzXkXkXkXkXkXkXkXkXkXbXkXcXxXxXxXxXxXcXcXlXvXkXzXxXhXN.3 1.U.d.p.p.q.q.q.7.p.I.H.z.hXzXkXxXfXM.X.q.7.u.J.d.p.a.g.8XxXkX",
"kXkXkXvXzXvXkXkXvXkXkXzXkXkXkXkXkXkXkXbXkXkXkXkXkXkXkXbXlXxX0X-.<.I.d.u.d.7.p.p.J.I.L.z.dXvXkXkXzXcXoX .q.u.p.f.d.f.e.6XxXjX",
"vXkXkXkXkXkXkXkXkXkXkXkXkXkXkXkXkXkXkXkXkXkXkXkXkXkXkXkXkXkXcXhXN.O.I.d.d.p.p.p.P.I.L.j.iXxXkXkXkXkXcX*X%.u.f.u.s.d.u.7XxXkX",
"kXzXkXkXvXzXkXkXkXvXkXkXkXvXkXkXzXkXkXvXkXkXvXkXkXkXkXvXkXvXkXzXcX].| U.d.d.a.I.K.J.K.j.iXvXkXkXkXkXkXcX0X%.p.f.d.U.w.$XxXjX",
"kXkXkXvXkXkXkXkXkXzXvXkXzXkXkXkXkXkXkXkXkXkXzXkXkXkXkXzXkXkXkXkXzXxXXX| U.d.d.J.J.p.J.x.dXcXkXkXkXkXzXbXxXrXe I.f.f.y.OXxXkX",
"kXvXkXkXkXkXkXkXkXvXzXkXkXkXkXkXkXvXkXzXzXvXkXkXzXvXkXkXzXkXkXkXkXjXxX/.O.Y.d.I.I.p.L.z.kXkXvXkXkXkXzXkXbXxX0X%.p.f.7.OXcXkX",
"kXzXkXkXkXvXzXkXkXkXkXkXkXkXvXzXkXkXkXkXkXkXkXkXkXkXkXkXvXkXkXkXkXzXkXlXM.<.U.p.p.I.H.Z.lXkXkXkXkXkXkXkXkXbXcX6Xo.I.y.(.cXkX",
"kXkXkXkXvXzXkXkXvXzXkXkXkXkXkXkXkXkXkXvXkXzXkXkXkXkXkXkXkXvXvXkXkXkXkXcXiXt u.a.s.f.i.+XxXjXkXkXkXkXkXkXkXkXbXxX+X>.i.A.xXjX",
"kXkXkXkXkXkXvXkXkXkXkXvXvXzXvXkXkXzXkXkXkXvXkXkXkXkXkXzXkXkXzXkXzXkXkXjXcX&X| U.f.p.r.9XcXkXzXkXkXkXzXkXvXkXkXkXcXA.2.(.cXkX",
"vXkXkXzXkXkXkXkXkXkXkXkXvXkXzXkXkXvXkXkXkXkXkXkXvXkXkXvXzXvXkXkXkXkXkXkXkXlXl.u.f.i.z.hXzXkXkXkXzXkXkXvXkXkXkXkXvXvXz.OXxXkX",
"zXkXkXvXkXvXkXzXkXkXkXkXzXkXkXkXkXkXkXzXvXkXzXvXzXkXkXkXkXkXkXkXkXkXkXkXhXcXoXO.U.y.@XxXkXkXkXkXkXkXkXkXkXzXkXkXkXxXeX6XxXkX",
"vXkXkXkXvXkXkXkXkXkXvXzXkXkXkXvXvXkXkXkXvXzXkXkXkXkXvXzXkXvXkXkXvXzXzXkXkXxXyX*.L.=.qXcXkXkXkXkXkXzXkXkXkXkXzXkXkXkXvXvXzXkX",
"kXkXkXkXzXkXkXkXvXzXkXkXkXkXzXkXkXzXkXkXkXkXkXkXkXkXkXkXkXkXkXkXkXkXvXkXkXkXvXc.4.m.cXkXkXkXkXkXkXkXkXvXkXkXkXvXkXkXkXkXvXkX",
"zXkXvXzXkXkXvXzXkXkXvXkXkXvXkXkXkXkXvXkXkXkXvXkXkXvXkXkXzXkXvXzXkXvXzXkXkXkXxXA.} 6XcXkXkXkXkXkXvXkXkXkXvXkXkXkXkXkXkXkXzXkX",
"kXkXkXkXkXkXkXkXkXkXzXkXkXkXkXkXkXkXkXkXkXkXzXkXkXzXkXkXvXkXkXkXkXkXkXkXkXkXxX4Xc.cXkXkXkXkXkXkXkXkXkXzXkXkXkXkXkXkXkXkXvXkX",
"kXkXkXzXkXvXzXkXkXkXkXvXzXkXkXvXvXkXkXzXvXkXkXkXkXvXzXkXkXkXvXkXkXkXkXkXkXkXcX9XrXxXkXzXzXvXkXkXkXvXkXkXkXkXvXkXkXkXzXvXkXkX",
"kXvXkXkXkXkXkXkXzXkXkXkXkXkXkXkXkXkXkXkXkXkXkXkXkXkXkXkXkXkXzXkXkXvXkXkXkXkXkXkXvXkXkXkXkXkXkXkXkXzXkXkXkXkXzXkXkXkXkXkXkXkX",
"zXkXkXkXkXkXkXkXvXkXzXkXkXvXkXzXkXkXvXkXzXkXvXzXkXkXkXkXvXzXkXkXkXkXkXkXkXkXkXkXkXkXzXvXkXkXvXzXkXkXkXkXkXkXkXkXvXzXkXkXkXkX",
"kXkXkXvXkXzXvXkXkXkXkXkXkXkXkXkXzXkXkXkXkXkXkXkXkXzXvXkXkXkXkXkXvXzXkXkXkXkXkXkXkXkXkXkXkXkXkXkXkXkXzXvXzXvXkXkXkXkXkXvXzXkX"
};
